<svg xmlns="http://www.w3.org/2000/svg">
  <symbol viewBox="0 0 36 36" id="i-flag-at">
    <path fill="#EEE" d="M0 13h36v10H0z"/>
    <path fill="#ED2939" d="M32 5H4C1.791 5 0 6.791 0 9v4h36V9c0-2.209-1.791-4-4-4zM4 31h28c2.209 0 4-1.791 4-4v-4H0v4c0 2.209 1.791 4 4 4z"/>
  </symbol>
  <symbol viewBox="0 0 36 36" id="i-flag-au">
    <path fill="#00247D" d="M32 5H4c-.205 0-.407.015-.604.045l-.004 1.754-2.73-.004C.244 7.427 0 8.185 0 9v18c0 2.209 1.791 4 4 4h28c2.209 0 4-1.791 4-4V9c0-2.209-1.791-4-4-4z"/>
    <path d="M9 26.023l-1.222 1.129.121-1.66-1.645-.251 1.373-.94-.829-1.443 1.591.488L9 21.797l.612 1.549 1.591-.488-.83 1.443 1.374.94-1.645.251.121 1.66zM27.95 9.562l-.799.738.079-1.086-1.077-.164.899-.615-.542-.944 1.04.319.4-1.013.401 1.013 1.041-.319-.543.944.898.615-1.076.164.079 1.086zm-4 6l-.799.739.079-1.086-1.077-.164.899-.616-.542-.944 1.04.319.4-1.013.401 1.013 1.041-.319-.543.944.898.616-1.076.164.079 1.086zm9-2l-.799.739.079-1.086-1.077-.164.899-.616-.542-.944 1.04.319.4-1.013.401 1.013 1.041-.319-.543.944.898.616-1.076.164.079 1.086zm-5 14l-.799.739.079-1.086-1.077-.164.899-.616-.542-.944 1.04.319.4-1.013.401 1.013 1.041-.319-.543.944.898.616-1.076.164.079 1.086zM31 16l.294.596.657.095-.475.463.112.655L31 17.5l-.588.309.112-.655-.475-.463.657-.095z" fill="#FFF"/>
    <path fill="#00247D" d="M19 18V5H4c-.32 0-.604.045-.604.045l-.004 1.754-2.73-.004S.62 6.854.535 7C.195 7.589 0 8.272 0 9v9h19z"/>
    <path fill="#EEE" d="M19 5h-2.331L12 8.269V5H7v2.569L3.396 5.045c-.614.094-1.19.325-1.672.665L6.426 9H4.69L.967 6.391c-.11.129-.211.262-.305.404L3.813 9H0v5h3.885L0 16.766V18h3.332L7 15.432V18h5v-3.269L16.668 18H19v-2.029L16.185 14H19V9h-2.814L19 7.029V5z"/>
    <path fill="#CF1B2B" d="M11 5H8v5H0v3h8v5h3v-5h8v-3h-8z"/>
    <path fill="#CF1B2B" d="M19 5h-1.461L12 8.879V9h1.571L19 5.198zm-17.276.71c-.281.195-.534.423-.757.681L4.69 9h1.735L1.724 5.71zM6.437 14L.734 18h1.727L7 14.822V14zM19 17.802v-1.22L15.313 14H13.57z"/>
  </symbol>
  <symbol viewBox="0 0 36 36" id="i-flag-be">
    <path fill="#141414" d="M4 5C1.791 5 0 6.791 0 9v18c0 2.209 1.791 4 4 4h8V5H4z"/>
    <path fill="#FEE833" d="M12 5h12v26H12z"/>
    <path fill="#EE232C" d="M32 5h-8v26h8c2.209 0 4-1.791 4-4V9c0-2.209-1.791-4-4-4z"/>
  </symbol>
  <symbol viewBox="0 0 36 36" id="i-flag-bg">
    <path fill="#EEE" d="M32 5H4C1.791 5 0 6.791 0 9v5h36V9c0-2.209-1.791-4-4-4z"/>
    <path fill="#D62612" d="M0 27c0 2.209 1.791 4 4 4h28c2.209 0 4-1.791 4-4v-5H0v5z"/>
    <path fill="#00966E" d="M0 14h36v8H0z"/>
  </symbol>
  <symbol viewBox="0 0 36 36" id="i-flag-ch">
    <path fill="#D32D27" d="M31 27c0 2.209-1.791 4-4 4H9c-2.209 0-4-1.791-4-4V9c0-2.209 1.791-4 4-4h18c2.209 0 4 1.791 4 4v18z"/>
    <path fill="#FFF" d="M25 16.063h-5v-5h-4v5h-5V20h5v5.063h4V20h5z"/>
  </symbol>
  <symbol viewBox="0 0 36 36" id="i-flag-cy">
    <path fill="#EEE" d="M36 27c0 2.209-1.791 4-4 4H4c-2.209 0-4-1.791-4-4V9c0-2.209 1.791-4 4-4h28c2.209 0 4 1.791 4 4v18z"/>
    <g fill-rule="evenodd" clip-rule="evenodd" fill="#5C913B">
      <path d="M12.974 22.148c.013.061-.008.072-.073.053-.355-.1-.67-.26-.891-.568-.073-.1-.12-.213-.148-.334-.013-.059-.002-.09.068-.072.411.101.739.324.97.682.045.07.072.15.074.239zm8.469.069c-.021-.111.008-.213.064-.303.23-.363.562-.584.977-.69.073-.018.075.021.063.074-.052.236-.184.422-.366.572-.215.177-.464.284-.738.347zm.95.23c-.007.039-.031.068-.059.092-.294.269-.632.418-1.038.379-.102-.01-.193-.053-.278-.113-.045-.031-.042-.053-.001-.088.148-.127.319-.207.505-.256.255-.066.514-.084.776-.041.033.004.065.01.095.027zm-9.954-.049c.276.004.584.061.858.244.05.033.133.07.128.119-.006.057-.09.084-.149.109-.168.074-.341.072-.515.031-.262-.062-.499-.174-.689-.369-.023-.023-.059-.051-.046-.084.01-.025.053-.023.083-.029.094-.019.189-.021.33-.021zm1.091-.384c0 .094-.012.184-.044.271-.019.051-.042.059-.087.025-.142-.105-.227-.25-.285-.412-.096-.267-.141-.541-.072-.822.024-.098.035-.1.104-.027.256.271.36.601.384.965zm7.35-.03c.028-.338.13-.666.383-.932.073-.078.087-.076.106.027.079.412.004.793-.25 1.131-.039.053-.099.131-.154.115-.066-.018-.062-.115-.074-.184-.01-.043-.007-.09-.011-.157zm-2.228.62c.032.551-.229.947-.604 1.303-.119-.432.093-1.097.604-1.303zm-2.282 1.314c-.362-.352-.628-.723-.614-1.236.002-.076.026-.078.085-.043.35.209.508.529.546.92.012.111.011.224-.017.359zm3.627-1.908c.067.193.059.387.02.582-.048.24-.143.457-.325.629-.09.084-.104.082-.151-.035-.059-.146-.053-.297-.016-.445.066-.266.2-.494.399-.682.014-.014.027-.025.042-.037l.031-.012zm-5.59-.008c.333.223.567.764.488 1.1-.015.066-.028.156-.085.174-.053.016-.105-.062-.145-.111-.28-.341-.351-.725-.258-1.163zm5.622 1.43c.326.02.607.137.824.391.07.082.065.09-.041.119-.271.074-.522.006-.766-.107-.135-.064-.258-.144-.366-.246-.045-.041-.044-.066.016-.09.107-.042.216-.069.333-.067zm-5.644.002c.106-.002.208.018.306.057.093.037.097.049.023.111-.208.182-.446.303-.718.353-.135.025-.269.023-.401-.016-.103-.029-.107-.035-.036-.119.163-.197.38-.307.625-.365.066-.015.134-.021.201-.021zm5.786.826c-.384.185-.944.174-1.219-.254-.038-.062-.028-.082.038-.098.456-.105.84.03 1.181.352zm-5.928.004c.209-.223.46-.342.752-.383.139-.02.276-.012.412.023.096.023.098.029.043.109-.189.277-.46.377-.782.357-.144-.007-.285-.034-.425-.106zm1.399-.922c-.004.088-.019.158-.045.228-.021.057-.045.062-.091.024-.167-.139-.278-.316-.358-.516-.082-.203-.147-.41-.11-.635.005-.027.005-.066.028-.074.032-.014.051.025.071.045.22.217.406.453.483.76.009.035.013.07.018.108l.004.06zm3.128.004c-.001-.146.043-.283.11-.414.102-.201.245-.373.407-.531.048-.045.069-.049.084.023.033.156.005.307-.037.455-.076.266-.195.508-.407.697-.078.068-.085.064-.122-.031-.025-.065-.034-.131-.035-.199zm.662 1.398c-.199.014-.401.021-.6-.035-.272-.078-.442-.269-.564-.514-.018-.035-.02-.057.031-.057.471.002.845.195 1.127.566.006.006.008.016.012.025 0 .003-.003.007-.006.015zm-4.471.008c.061-.125.141-.201.227-.272.259-.213.55-.344.893-.342.058 0 .087.004.051.072-.174.344-.445.533-.834.539-.107.005-.214.003-.337.003zm5.395-1.932c-.132-.195-.142-.402-.091-.615.053-.228.169-.426.323-.602.042-.049.063-.041.091.01.072.133.082.273.06.42-.046.301-.177.557-.383.787zm-6.583-1.255c.311.269.553.887.286 1.244-.348-.266-.511-.977-.286-1.244zm-.502 1.863c-.141-.004-.306-.02-.451-.113-.092-.059-.09-.067-.011-.135.18-.158.393-.178.616-.145.17.025.335.074.501.117.057.016.056.035.023.074-.075.084-.175.121-.279.152-.121.036-.246.05-.399.05zm7.841 0c-.179-.004-.345-.023-.501-.098l-.05-.025c-.05-.029-.12-.062-.117-.119.003-.051.083-.043.13-.055.217-.057.432-.123.66-.105.14.012.261.064.367.154.08.068.081.076-.011.135-.148.095-.316.109-.478.113z"/>
      <path d="M18.027 24.555c-.25-.061-.502-.121-.752-.184-.049-.012-.095-.012-.144 0-.25.064-.502.123-.755.18.158-.125.338-.205.551-.27l-.815-.283c.1-.016.165.016.231.033.262.068.526.125.792.176.114.021.22-.016.328-.037.319-.062.635-.145.952-.225-.299.125-.608.223-.936.334.208.067.389.143.548.276z"/>
    </g>
    <path fill-rule="evenodd" clip-rule="evenodd" fill="#F4900C" d="M25.774 11.114l-.149.073c-.268.126-.521.299-.838.278-.03-.002-.065.014-.071.048-.021.1-.097.112-.176.113-.153.003-.267.067-.356.193-.099.138-.224.244-.398.281-.056.012-.108.044-.157.074-.145.088-.299.129-.467.112-.055-.006-.091.011-.124.056-.077.103-.162.202-.244.301-.045.053-.094.106-.161.119-.224.044-.402.181-.596.286-.362.196-.726.39-1.132.485-.168.039-.346.087-.51.043-.135-.036-.218.009-.309.075-.056.039-.11.08-.158.127-.189.184-.409.266-.673.232-.049-.007-.098-.006-.143.019-.22.12-.468.123-.706.169-.108.022-.219-.017-.322.008-.246.057-.487-.01-.726-.032-.177-.017-.351-.058-.53-.029-.109.018-.202-.009-.282-.081-.078-.07-.157-.075-.245-.024-.075.044-.155.047-.23.007-.088-.046-.174-.048-.267-.022-.113.031-.229.052-.345.014-.271-.087-.551-.151-.811-.271-.125-.058-.125-.054-.113.088.014.165.071.323.065.492-.008.231-.018.461-.036.692-.026.343-.204.574-.498.735-.111.061-.21.061-.322.007-.204-.1-.405-.206-.619-.286-.273-.102-.541-.127-.816-.008-.094.041-.175.129-.294.099-.007-.002-.02.013-.028.021-.096.1-.196.197-.233.337-.054.201-.142.373-.344.475-.111.056-.202.15-.317.204-.158.074-.351.086-.465-.018-.135-.124-.333-.198-.396-.397-.012-.037-.055-.065-.08-.009-.054.124-.106.252-.042.39.047.101.097.2.175.28.024.025.039.055.046.089.023.116.031.233.002.348-.017.068-.006.126.03.184.026.042.074.102.051.132-.092.118-.006.192.048.277.004.008.01.017.01.026-.004.138.095.187.199.233.062.028.125.059.147.131.059.192.085.393.153.585.023.065.038.11.1.145.141.078.291.143.378.297.041.072.135.094.223.084.034-.004.076-.018.094.014.042.068.109.068.17.062.143-.016.244.045.325.154.042.057.096.092.163.113.146.049.292.098.431.162.083.039.164.053.243-.01.021-.016.045-.018.07-.014.134.025.248-.014.349-.104.041-.037.091-.062.144-.037.089.041.173.021.261 0 .097-.025.199-.033.288.018.166.094.27.248.372.404.066.1.065.209.046.32-.007.039.007.045.042.047.191.014.383.031.579.049-.017-.065-.064-.107-.098-.156-.075-.113-.123-.236-.079-.367.076-.227.24-.391.449-.49.088-.043.183-.08.272-.123.25-.123.507-.108.766-.033.136.039.297-.012.382-.119.017-.022.041-.029.064-.031.07-.01.143-.021.211 0 .073.025.132.025.186-.043.024-.029.069-.037.11-.035.027 0 .051 0 .074-.025.063-.074.151-.102.243-.123.021-.004.043-.002.059-.021.135-.169.331-.215.529-.255.071-.015.12-.044.161-.104.145-.21.289-.263.536-.198.062.017.078-.005.093-.057.026-.094.068-.182.155-.232.049-.028.061-.062.061-.111.001-.142.003-.284.006-.425.007-.328.248-.499.498-.539.153-.024.308-.007.461-.004.106.003.2.031.287.088.079.053.151.115.231.168.078.054.158.049.242.003.072-.04.105-.092.083-.174-.013-.051.013-.066.06-.063.071.005.153.023.209-.016.13-.088.262-.044.393-.035.05.003.102.002.144.028.108.07.249.063.351.149.007.006.021.001.056.001-.053-.028-.048-.058-.04-.093.018-.082 0-.161-.048-.229-.079-.113-.221-.179-.243-.336-.005-.03-.056-.056-.087-.08-.061-.047-.124-.091-.186-.137-.037-.028-.075-.06-.085-.106-.037-.181-.162-.298-.286-.418-.242-.235-.345-.517-.288-.855.018-.11.029-.224.104-.31.066-.076.145-.137.138-.25-.001-.013.011-.031.021-.039.131-.108.259-.219.45-.18.082.017.167.017.248.003.109-.017.194-.073.225-.191.016-.062.028-.129.062-.183.177-.289.435-.501.713-.683.114-.075.253-.125.38-.186.081-.038.16-.083.249-.095.057-.008.092-.034.126-.077.158-.207.328-.401.597-.471.074-.019.109-.084.136-.153.033-.09.065-.188.148-.24.259-.163.482-.398.815-.416.072-.003.111-.044.129-.112l.07-.277c.003-.004.011-.01.01-.012-.011-.007-.02-.002-.028.003z"/>
  </symbol>
  <symbol viewBox="0 0 36 36" id="i-flag-cz">
    <path fill="#D7141A" d="M1.383 29.973C2.084 30.628 2.998 31 4 31h28c2.209 0 4-1.791 4-4.5V18H17.5L1.383 29.973z"/>
    <path fill="#EEE" d="M32 5H4c-1.016 0-1.94.382-2.646 1.006L17.5 18H36V9c0-2.209-1.791-4-4-4z"/>
    <path fill="#11457E" d="M1.383 29.973L17.5 18 1.354 6.006C.525 6.739 0 7.807 0 9v17.5c0 1.48.537 2.683 1.383 3.473z"/>
  </symbol>
  <symbol viewBox="0 0 36 36" id="i-flag-de">
    <path fill="#FFCD05" d="M0 27c0 2.209 1.791 4 4 4h28c2.209 0 4-1.791 4-4v-4H0v4z"/>
    <path fill="#ED1F24" d="M0 14h36v9H0z"/>
    <path fill="#141414" d="M32 5H4C1.791 5 0 6.791 0 9v5h36V9c0-2.209-1.791-4-4-4z"/>
  </symbol>
  <symbol viewBox="0 0 36 36" id="i-flag-dk">
    <path fill="#C60C30" d="M32 5H15v11h21V9c0-2.209-1.791-4-4-4zM15 31h17c2.209 0 4-1.791 4-4.5V20H15v11zM0 20v6.5C0 29.209 1.791 31 4 31h7V20H0zM11 5H4C1.791 5 0 6.791 0 9v7h11V5z"/>
    <path fill="#EEE" d="M15 5h-4v11H0v4h11v11h4V20h21v-4H15z"/>
  </symbol>
  <symbol viewBox="0 0 36 36" id="i-flag-ee">
    <path fill="#141414" d="M0 14h36v9H0z"/>
    <path fill="#4891D9" d="M32 5H4C1.791 5 0 6.791 0 9v5h36V9c0-2.209-1.791-4-4-4z"/>
    <path fill="#EEE" d="M32 31H4c-2.209 0-4-1.791-4-4v-4h36v4c0 2.209-1.791 4-4 4z"/>
  </symbol>
  <symbol viewBox="0 0 36 36" id="i-flag-es">
    <path fill="#C60A1D" d="M36 27c0 2.209-1.791 4-4 4H4c-2.209 0-4-1.791-4-4V9c0-2.209 1.791-4 4-4h28c2.209 0 4 1.791 4 4v18z"/>
    <path fill="#FFC400" d="M0 12h36v12H0z"/>
    <path fill="#EA596E" d="M9 17v3c0 1.657 1.343 3 3 3s3-1.343 3-3v-3H9z"/>
    <path fill="#F4A2B2" d="M12 16h3v3h-3z"/>
    <path fill="#DD2E44" d="M9 16h3v3H9z"/>
    <ellipse fill="#EA596E" cx="12" cy="14.5" rx="3" ry="1.5"/>
    <ellipse fill="#FFAC33" cx="12" cy="13.75" rx="3" ry=".75"/>
    <path fill="#99AAB5" d="M7 16h1v7H7zm9 0h1v7h-1z"/>
    <path fill="#66757F" d="M6 22h3v1H6zm9 0h3v1h-3zm-8-7h1v1H7zm9 0h1v1h-1z"/>
  </symbol>
  <symbol viewBox="0 0 36 36" id="i-flag-fi">
    <path fill="#EDECEC" d="M32 5H18v10h18V9c0-2.209-1.791-4-4-4z"/>
    <path fill="#EEE" d="M11 5H4C1.791 5 0 6.791 0 9v6h11V5z"/>
    <path fill="#EDECEC" d="M32 31H18V21h18v6c0 2.209-1.791 4-4 4zm-21 0H4c-2.209 0-4-1.791-4-4v-6h11v10z"/>
    <path fill="#003580" d="M18 5h-7v10H0v6h11v10h7V21h18v-6H18z"/>
  </symbol>
  <symbol viewBox="0 0 36 36" id="i-flag-fr">
    <path fill="#ED2939" d="M36 27c0 2.209-1.791 4-4 4h-8V5h8c2.209 0 4 1.791 4 4v18z"/>
    <path fill="#002495" d="M4 5C1.791 5 0 6.791 0 9v18c0 2.209 1.791 4 4 4h8V5H4z"/>
    <path fill="#EEE" d="M12 5h12v26H12z"/>
  </symbol>
  <symbol viewBox="0 0 36 36" id="i-flag-gb">
    <path fill="#00247D" d="M0 9.059V13h5.628zM4.664 31H13v-5.837zM23 25.164V31h8.335zM0 23v3.941L5.63 23zM31.337 5H23v5.837zM36 26.942V23h-5.631zM36 13V9.059L30.371 13zM13 5H4.664L13 10.837z"/>
    <path fill="#CF1B2B" d="M25.14 23l9.712 6.801c.471-.479.808-1.082.99-1.749L28.627 23H25.14zM13 23h-2.141l-9.711 6.8c.521.53 1.189.909 1.938 1.085L13 23.943V23zm10-10h2.141l9.711-6.8c-.521-.53-1.188-.909-1.937-1.085L23 12.057V13zm-12.141 0L1.148 6.2C.677 6.68.34 7.282.157 7.949L7.372 13h3.487z"/>
    <path fill="#EEE" d="M36 21H21v10h2v-5.836L31.335 31H32c1.117 0 2.126-.461 2.852-1.199L25.14 23h3.487l7.215 5.052c.093-.337.158-.686.158-1.052v-.058L30.369 23H36v-2zM0 21v2h5.63L0 26.941V27c0 1.091.439 2.078 1.148 2.8l9.711-6.8H13v.943l-9.914 6.941c.294.07.598.116.914.116h.664L13 25.163V31h2V21H0zM36 9c0-1.091-.439-2.078-1.148-2.8L25.141 13H23v-.943l9.915-6.942C32.62 5.046 32.316 5 32 5h-.663L23 10.837V5h-2v10h15v-2h-5.629L36 9.059V9zM13 5v5.837L4.664 5H4c-1.118 0-2.126.461-2.852 1.2l9.711 6.8H7.372L.157 7.949C.065 8.286 0 8.634 0 9v.059L5.628 13H0v2h15V5h-2z"/>
    <path fill="#CF1B2B" d="M21 15V5h-6v10H0v6h15v10h6V21h15v-6z"/>
  </symbol>
  <symbol viewBox="0 0 36 36" id="i-flag-gr">
    <path fill="#0D5EB0" d="M4 31h28c.702 0 1.361-.182 1.935-.5H2.065c.574.318 1.233.5 1.935.5z"/>
    <path fill="#EEE" d="M8.5 19.5H0V22h36v-2.5H14zM0 27c0 .17.014.336.035.5h35.931c.02-.164.034-.33.034-.5v-2H0v2zm14-13h22v2.5H14zm0-5.5V11h22V9c0-.17-.014-.336-.035-.5H14z"/>
    <path fill="#0D5EB0" d="M14 11h22v3H14zM0 22h36v3H0zm2.065 8.5h31.87c1.092-.605 1.869-1.707 2.031-3H.035c.161 1.293.938 2.395 2.03 3zM0 14h5.5v5.5H0zm14 2.5V14H8.5v5.5H36v-3zm19.935-11C33.361 5.182 32.702 5 32 5H4c-.702 0-1.361.182-1.935.5C.973 6.105.196 7.207.034 8.5.014 8.664 0 8.83 0 9v2h5.5V5.5h3V11H14V8.5h21.965c-.161-1.293-.938-2.395-2.03-3z"/>
    <path fill="#EEE" d="M8.5 11V5h-3v6H0v3h5.5v5.5h3V14H14v-3z"/>
  </symbol>
  <symbol viewBox="0 0 36 36" id="i-flag-hr">
    <path fill="#EEE" d="M0 12.9h36v10.2H0z"/>
    <path fill="#171796" d="M36 27c0 2.209-1.791 4-4 4H4c-2.209 0-4-1.791-4-4v-4h36v4z"/>
    <path fill="#D52B1E" d="M32 5H4C1.791 5 0 6.791 0 9v4h36V9c0-2.209-1.791-4-4-4z"/>
    <path fill="#D52B1E" d="M11.409 7.436V18.97c0 3.64 2.951 6.591 6.591 6.591s6.591-2.951 6.591-6.591V7.436H11.409z"/>
    <path d="M14.25 18h2.5v2.5h-2.5zm2.5 2.5h2.5V23h-2.5zm0-5h2.5V18h-2.5zm2.5 2.5h2.5v2.5h-2.5zm0-5h2.5v2.5h-2.5zm2.5 2.5h2.341V18H21.75zm-7.5-2.5h2.5v2.5h-2.5zm7.5 10h.805c.626-.707 1.089-1.559 1.334-2.5H21.75V23zm-2.5 0v1.931c.929-.195 1.778-.605 2.5-1.171V23h-2.5zm-5 0v-2.5h-2.139c.245.941.707 1.793 1.334 2.5h.805zm-2.341-7.5h2.341V18h-2.341zM14.25 23v.76c.722.566 1.571.976 2.5 1.171V23h-2.5z" fill="#FFF"/>
    <path fill="#171796" d="M24.757 8.141l-1.998.791-1.328-1.682-1.829 1.126L18 6.949l-1.603 1.428-1.826-1.128-1.331 1.684-1.995-.793-1.122 2.08 1.331 2.862.176-.082c.78-.363 1.603-.662 2.443-.888l.04-.011c.854-.227 1.702-.378 2.523-.451l.064-.006c.705-.06 1.896-.06 2.601 0l.058.005c.824.074 1.678.226 2.536.453l.033.009c.836.225 1.658.524 2.441.889l.175.082 1.331-2.861-1.118-2.08z"/>
    <path fill="#0193DD" d="M16.638 8.681l.221 2.563c.33-.026.729-.051 1.141-.051.412 0 .811.025 1.141.051l.221-2.563L18 7.468l-1.362 1.213zm7.941-.053l-1.698.673-.668 2.489c.731.206 1.45.468 2.144.779l1.086-2.336-.864-1.605zm-13.157-.002l-.866 1.606 1.087 2.336c.69-.31 1.409-.572 2.144-.779l-.67-2.49-1.695-.673z"/>
  </symbol>
  <symbol viewBox="0 0 36 36" id="i-flag-hu">
    <path fill="#EEE" d="M0 14h36v8H0z"/>
    <path fill="#CD2A3E" d="M32 5H4C1.791 5 0 6.791 0 9v5h36V9c0-2.209-1.791-4-4-4z"/>
    <path fill="#436F4D" d="M4 31h28c2.209 0 4-1.791 4-4v-5H0v5c0 2.209 1.791 4 4 4z"/>
  </symbol>
  <symbol viewBox="0 0 36 36" id="i-flag-ie">
    <path fill="#169B62" d="M4 5C1.791 5 0 6.791 0 9v18c0 2.209 1.791 4 4 4h8V5H4z"/>
    <path fill="#EEE" d="M12 5h12v26H12z"/>
    <path fill="#FF883E" d="M32 5h-8v26h8c2.209 0 4-1.791 4-4V9c0-2.209-1.791-4-4-4z"/>
  </symbol>
  <symbol viewBox="0 0 36 36" id="i-flag-it">
    <path fill="#CE2B37" d="M36 27c0 2.209-1.791 4-4 4h-8V5h8c2.209 0 4 1.791 4 4v18z"/>
    <path fill="#009246" d="M4 5C1.791 5 0 6.791 0 9v18c0 2.209 1.791 4 4 4h8V5H4z"/>
    <path fill="#EEE" d="M12 5h12v26H12z"/>
  </symbol>
  <symbol viewBox="0 0 36 36" id="i-flag-lt">
    <path fill="#006A44" d="M0 14h36v8H0z"/>
    <path fill="#FDB913" d="M32 5H4C1.791 5 0 6.791 0 9v5h36V9c0-2.209-1.791-4-4-4z"/>
    <path fill="#C1272D" d="M4 31h28c2.209 0 4-1.791 4-4v-5H0v5c0 2.209 1.791 4 4 4z"/>
  </symbol>
  <symbol viewBox="0 0 36 36" id="i-flag-lu">
    <path fill="#EEE" d="M0 14h36v8H0z"/>
    <path fill="#ED2939" d="M32 5H4C1.791 5 0 6.791 0 9v5h36V9c0-2.209-1.791-4-4-4z"/>
    <path fill="#00A1DE" d="M4 31h28c2.209 0 4-1.791 4-4v-5H0v5c0 2.209 1.791 4 4 4z"/>
  </symbol>
  <symbol viewBox="0 0 36 36" id="i-flag-lv">
    <path fill="#9E3039" d="M32 5H4C1.791 5 0 6.791 0 9v6h36V9c0-2.209-1.791-4-4-4zm0 26H4c-2.209 0-4-1.791-4-4v-6h36v6c0 2.209-1.791 4-4 4z"/>
    <path fill="#EEE" d="M0 15h36v6H0z"/>
  </symbol>
  <symbol viewBox="0 0 36 36" id="i-flag-mt">
    <path fill="#CF142B" d="M32 5H18v26h14c2.209 0 4-1.791 4-4V9c0-2.209-1.791-4-4-4z"/>
    <path fill="#EEE" d="M4 5C1.791 5 0 6.791 0 9v18c0 2.209 1.791 4 4 4h14V5H4z"/>
    <path fill="#CF142B" d="M1.654 9.656h8.691v2.688H1.654z"/>
    <path fill="#CF142B" d="M4.656 6.654h2.688v8.691H4.656z"/>
    <g fill="#CF142B">
      <circle cx="4.71" cy="12.271" r=".921"/>
      <circle cx="7.355" cy="12.271" r=".921"/>
      <circle cx="4.71" cy="9.824" r=".921"/>
      <circle cx="7.355" cy="9.824" r=".921"/>
    </g>
    <g fill="#99AAB5">
      <circle cx="4.708" cy="12.271" r=".708"/>
      <circle cx="7.355" cy="12.271" r=".708"/>
      <circle cx="4.708" cy="9.824" r=".708"/>
      <circle cx="7.355" cy="9.824" r=".708"/>
    </g>
    <circle fill="#CCD6DD" cx="6.032" cy="11.032" r="1.817"/>
    <path fill="#CCD6DD" d="M5 7h2v8H5z"/>
    <path fill="#CCD6DD" d="M2 10h8v2H2z"/>
    <circle fill="#B2C0C9" cx="6.032" cy="11.083" r="1.204"/>
    <path fill="#99AAB5" d="M6.647 11.023c.015-.017.032-.032.048-.047l.009-.007c.042.021.083.047.123.072.08.049.334-.066.219-.137-.099-.061-.198-.132-.32-.111-.091.016-.169.063-.238.122-.008-.062-.015-.123-.029-.184.019-.02.03-.042.025-.069-.011-.058.021-.122.041-.175.01-.026-.004-.044-.025-.055.009-.012.016-.024.024-.037.035.012.071.023.108.031.063.013.146-.013.195-.052.046-.036.031-.073-.022-.083-.094-.019-.181-.067-.269-.105-.058-.025-.143.001-.194.029-.033.018-.084.066-.031.092-.006.006-.013.22-.016.227-.044.095-.118-.534-.169.466h-.018c-.017 0-.141-.345-.134-.414.074-.015.026-.264.026-.315v-.029c0-.015.113-.025.105-.033.03-.019.117-.045.09-.067-.042-.035-.1-.011-.146.007-.014-.007-.014-.012-.028-.014-.01-.002-.013 0-.023 0 .054-.022.1-.058.086-.099-.008-.025-.014-.045 0-.07.067-.116-.21-.09-.257-.009-.029.051-.035.097-.017.153.012.038.061.051.113.046-.028.015-.053.037-.068.065l-.003.009c-.042 0-.09.013-.119.025-.161.069-.331.119-.482.209-.025.015-.094.063-.031.083.038.012.087.006.131-.007.002.007.002.013.006.019.039.051.096.098.154.126.061.03.142.013.196-.023.036-.023.075-.081.03-.112.017-.025.043-.043.068-.061.003.064.011.127.027.184.004.016.013.028.023.038-.033.006-.065.019-.09.034-.033.02-.072.065-.042.096-.07.013-.139.031-.205.062-.025.011-.08.043-.085.078l-.096.012c-.051.008-.135.032-.153.09-.024.001-.052.006-.072.011-.059.008-.17.034-.175.086-.008.092.038.167.078.245-.037.036-.063.078-.074.132-.024.119.256.077.277-.029.003-.016.005-.032.019-.042.035-.025.07-.074.039-.108.012-.01.02-.018.016-.025-.035-.068-.072-.134-.077-.21.015.006.031.009.047.01.019.102.097.192.171.26.018.016.051.018.087.013-.015.012-.028.025-.034.042-.034.085-.048.173-.059.263-.004.037.024.073.06.082.116.027.209.082.303.154.097.074.339-.062.213-.159-.088-.067-.183-.123-.288-.159.007-.051.016-.102.035-.15.007-.018.009-.034.007-.047.023-.009.045-.019.065-.031.178-.108.396-.131.587-.218-.008.028.009.055.049.064.082.019.231.018.258.112.027.095-.005.209.056.293.056.078.323-.016.256-.109-.023-.032-.019-.095-.021-.133-.003-.059-.006-.121-.034-.175-.057-.108-.242-.116-.346-.141-.036-.008-.076-.055-.114-.043.003-.007-.003-.071-.021-.071h-.006c.001 0 .001.048.002.047.061-.004.12.023.159-.024z"/>
  </symbol>
  <symbol viewBox="0 0 36 36" id="i-flag-nl">
    <path fill="#EEE" d="M0 14h36v8H0z"/>
    <path fill="#AE1F28" d="M32 5H4C1.791 5 0 6.791 0 9v5h36V9c0-2.209-1.791-4-4-4z"/>
    <path fill="#20478B" d="M4 31h28c2.209 0 4-1.791 4-4v-5H0v5c0 2.209 1.791 4 4 4z"/>
  </symbol>
  <symbol viewBox="0 0 36 36" id="i-flag-no">
    <path fill="#EF2B2D" d="M10 5H4C1.791 5 0 6.791 0 9v6h10V5zm22 0H16v10h20V9c0-2.209-1.791-4-4-4zM10 31H4c-2.209 0-4-1.791-4-4v-6h10v10zm22 0H16V21h20v6c0 2.209-1.791 4-4 4z"/>
    <path fill="#002868" d="M14.5 5h-2.944l-.025 11.5H0v3h11.525L11.5 31h3V19.5H36v-3H14.5z"/>
    <path fill="#EEE" d="M14.5 31H16V21h20v-1.5H14.5zM16 5h-1.5v11.5H36V15H16zm-4.5 0H10v10H0v1.5h11.5zM0 19.5V21h10v10h1.5V19.5z"/>
  </symbol>
  <symbol viewBox="0 0 36 36" id="i-flag-nz">
    <path fill="#00247D" d="M32 5H4c-.205 0-.407.015-.604.045l-.004 1.754-2.73-.004C.244 7.427 0 8.185 0 9v18c0 2.209 1.791 4 4 4h28c2.209 0 4-1.791 4-4V9c0-2.209-1.791-4-4-4z"/>
    <path fill="#EEEDED" d="M29.194 9.5h-1.263l-.194-.58-.237-.706-.237.706-.194.58h-1.263l.535.443.472.39-.199.587-.267.782.656-.504.497-.383.497.383.656.504-.267-.782-.199-.587.472-.39z"/>
    <path fill="#CF1B2B" d="M27.5 9l-.251.75H26.5l.605.501-.255.749.65-.5.65.5-.255-.749.605-.501h-.749z"/>
    <path fill="#EEEDED" d="M29.194 25.75h-1.263l-.194-.58-.237-.706-.237.706-.194.58h-1.263l.535.443.472.39-.199.587-.267.782.656-.504.497-.383.497.383.656.504-.267-.782-.199-.587.472-.39z"/>
    <path fill="#CF1B2B" d="M27.5 25.25l-.251.75H26.5l.605.501-.255.749.65-.5.65.5-.255-.749L28.5 26h-.749z"/>
    <path fill="#EEEDED" d="M33.194 13.5h-1.263l-.194-.58-.237-.706-.237.706-.194.58h-1.263l.535.443.472.39-.199.587-.267.782.656-.504.497-.383.497.383.656.504-.267-.782-.199-.587.472-.39z"/>
    <path fill="#CF1B2B" d="M31.5 13l-.251.75H30.5l.605.501-.255.749.65-.5.65.5-.255-.749.605-.501h-.749z"/>
    <path fill="#EEEDED" d="M25.194 15.5h-1.263l-.194-.58-.237-.706-.237.706-.194.58h-1.263l.535.443.472.39-.199.587-.267.782.656-.504.497-.383.497.383.656.504-.267-.782-.199-.587.472-.39z"/>
    <path fill="#CF1B2B" d="M23.5 15l-.251.75H22.5l.605.501-.255.749.65-.5.65.5-.255-.749.605-.501h-.749z"/>
    <path fill="#00247D" d="M19 18V5H4c-.32 0-.604.045-.604.045l-.004 1.754-2.73-.004S.62 6.854.535 7C.195 7.589 0 8.272 0 9v9h19z"/>
    <path fill="#EEE" d="M19 5h-2.331L12 8.269V5H7v2.569L3.396 5.045c-.614.094-1.19.325-1.672.665L6.426 9H4.69L.967 6.391c-.11.129-.211.262-.305.404L3.813 9H0v5h3.885L0 16.766V18h3.332L7 15.432V18h5v-3.269L16.668 18H19v-2.029L16.185 14H19V9h-2.814L19 7.029V5z"/>
    <path fill="#CF1B2B" d="M11 5H8v5H0v3h8v5h3v-5h8v-3h-8z"/>
    <path fill="#CF1B2B" d="M19 5h-1.461L12 8.879V9h1.571L19 5.198zm-17.276.71c-.281.195-.534.423-.757.681L4.69 9h1.735L1.724 5.71zM6.437 14L.734 18h1.727L7 14.822V14zM19 17.802v-1.22L15.313 14H13.57z"/>
  </symbol>
  <symbol viewBox="0 0 36 36" id="i-flag-pl">
    <path fill="#EEE" d="M32 5H4C1.791 5 0 6.791 0 9v9h36V9c0-2.209-1.791-4-4-4z"/>
    <path fill="#DC143C" d="M0 27c0 2.209 1.791 4 4 4h28c2.209 0 4-1.791 4-4v-9H0v9z"/>
  </symbol>
  <symbol viewBox="0 0 36 36" id="i-flag-pt">
    <path fill="#060" d="M36 27c0 2.209-1.791 4-4 4H4c-2.209 0-4-1.791-4-4V9c0-2.209 1.791-4 4-4h28c2.209 0 4 1.791 4 4v18z"/>
    <path fill="#D52B1E" d="M32 5H15v26h17c2.209 0 4-1.791 4-4V9c0-2.209-1.791-4-4-4z"/>
    <path fill="#FFCC4D" d="M15 10c-4.418 0-8 3.582-8 8s3.582 8 8 8 8-3.582 8-8-3.582-8-8-8zm3.994 5.938l2.089-1.393c.491.863.803 1.839.888 2.881l-2.977-1.488zM16 24h2.592c-.779.467-1.655.786-2.592.92V24zm-7.971-6.574c.083-1.022.383-1.982.858-2.832l1.602 1.602-2.46 1.23zm0 1.147l3.747 1.874.447-.895L9.118 18l2.116-1.058 1.412 1.412.707-.707-1.176-1.176.046-.023-.447-.895-.344.172-.975-.975 1.461.244.164-.986-2.514-.419c1.084-1.333 2.65-2.253 4.432-2.508V23h-3.099l2.376-1.584-.555-.832-3 2 .014.021c-.959-1.097-1.582-2.492-1.707-4.032zM14 24.92c-.937-.135-1.813-.453-2.592-.92H14v.92zm6.287-2.34l-2.933-2.933-.707.707.471.471-.395.592L19.099 23H16V11.08c1.321.189 2.524.741 3.499 1.561l-2.657.886.316.948 3-1-.103-.308c.167.174.323.357.471.548l-2.804 1.869L18 16l-.224.447L20.882 18l-3.105 1.553.447.895 3.747-1.874c-.124 1.527-.737 2.913-1.684 4.006z"/>
    <path fill="#D52B1E" d="M11 13v7c0 2.209 1.791 4 4 4s4-1.791 4-4v-7h-8z"/>
    <path fill="#FFF" d="M12 14v6c0 1.656 1.343 3 3 3s3-1.344 3-3v-6h-6z"/>
    <path fill="#829ACD" d="M13 17h4v2h-4z"/>
    <path fill="#829ACD" d="M14 16h2v4h-2z"/>
    <path fill="#039" d="M12 17h1v2h-1zm2 0h2v2h-2zm3 0h1v2h-1zm-3 3h2v2h-2zm0-6h2v2h-2z"/>
  </symbol>
  <symbol viewBox="0 0 36 36" id="i-flag-ro">
    <path fill="#002B7F" d="M4 5C1.791 5 0 6.791 0 9v18c0 2.209 1.791 4 4 4h8V5H4z"/>
    <path fill="#FCD116" d="M12 5h12v26H12z"/>
    <path fill="#CE1126" d="M32 5h-8v26h8c2.209 0 4-1.791 4-4V9c0-2.209-1.791-4-4-4z"/>
  </symbol>
  <symbol viewBox="0 0 36 36" id="i-flag-ru">
    <path fill="#CE2028" d="M36 27c0 2.209-1.791 4-4 4H4c-2.209 0-4-1.791-4-4v-4h36v4z"/>
    <path fill="#22408C" d="M0 13h36v10H0z"/>
    <path fill="#EEE" d="M32 5H4C1.791 5 0 6.791 0 9v4h36V9c0-2.209-1.791-4-4-4z"/>
  </symbol>
  <symbol viewBox="0 0 36 36" id="i-flag-se">
    <path fill="#006AA7" d="M15.5 31H32c2.209 0 4-1.791 4-4.5v-6H15.5V31zM32 5H15.5v10.5H36V9c0-2.209-1.791-4-4-4zM10.5 5H4C1.792 5 .002 6.789 0 8.997V15.5h10.5V5zM0 20.5v6.004C.002 29.211 1.792 31 4 31h6.5V20.5H0z"/>
    <path fill="#FECC00" d="M15.5 5h-5v10.5H0v5h10.5V31h5V20.5H36v-5H15.5z"/>
  </symbol>
  <symbol viewBox="0 0 36 36" id="i-flag-si">
    <path fill="#ED1C23" d="M36 27v-4H0v4c0 2.209 1.791 4 4 4h28c2.209 0 4-1.791 4-4z"/>
    <path fill="#EEE" d="M36 23H0V9c0-2.209 1.791-4 4-4h28c2.209 0 4 1.791 4 4v14z"/>
    <path fill="#005DA4" d="M0 13h36v10H0z"/>
    <path fill="#ED1C23" d="M11.125 7.917c-2.25 0-3.833.833-3.833.833s.146 2 .333 5.083 3.5 4.167 3.5 4.167 3.312-1.083 3.5-4.167.333-5.083.333-5.083-1.583-.833-3.833-.833z"/>
    <path fill="#004A77" d="M14.592 8.586c-.588-.242-1.849-.67-3.467-.67s-2.879.428-3.467.67c.011.21.137 2.503.299 5.164.17 2.791 3.167 3.771 3.167 3.771s2.998-.98 3.167-3.771c.164-2.66.29-4.954.301-5.164z"/>
    <path fill="#FFF" d="M12.104 15.92c-.354 0-.521.211-1.042.211s-.604-.211-.958-.211c-.268 0-.434.12-.639.179.812.61 1.66.86 1.66.86.711-.118 1.27-.466 1.693-.859-.269-.059-.445-.18-.714-.18zm-1.958-1.383c.333 0 .625.26.979.26s.604-.26.979-.26c.321 0 .743.419 1.36.179.278-.469.411-.841.411-.841l-1.25-1.792-.625.759-.875-1.675-.833 1.675-.604-.799s-.542.643-1.438 1.851c.107.286.251.534.407.766.709.35 1.187-.123 1.489-.123zm2.958.755c-.458 0-.646-.26-1-.26s-.521.26-1.042.26-.604-.26-.958-.26-.53.26-.854.26c-.117 0-.248-.036-.373-.085.127.168.252.341.39.484.386-.035.673-.273.879-.273.333 0 .625.278.979.278s.604-.278.979-.278c.231 0 .516.235.887.271.109-.142.205-.283.293-.423-.058.009-.113.026-.18.026z"/>
    <path fill="#FD0" d="M10.318 8.807l.217.233-.309-.072-.094.304-.092-.304-.311.072.218-.233-.218-.233.311.072.092-.304.094.304.309-.072zm2.094 0l.217.233-.31-.072-.093.304-.093-.304-.31.072.217-.233-.217-.233.31.072.093-.304.093.304.31-.072zm-1.084 1.396l.216.233-.309-.072-.093.303-.093-.303-.31.072.217-.233-.217-.233.31.072.093-.304.093.304.309-.072z"/>
  </symbol>
  <symbol viewBox="0 0 36 36" id="i-flag-sk">
    <path fill="#EE2024" d="M36 27v-4H0v4c0 2.209 1.791 4 4 4h28c2.209 0 4-1.791 4-4z"/>
    <path fill="#EEE" d="M36 23H0V9c0-2.209 1.791-4 4-4h28c2.209 0 4 1.791 4 4v14z"/>
    <path fill="#0A4EA2" d="M0 13h36v10H0z"/>
    <path fill="#FFF" d="M11.837 25.09c-1.129-.646-3.638-2.278-4.555-4.488-.925-2.227-.719-5.423-.481-9.124l.06-.936h11.963l.061.936c.238 3.7.444 6.895-.481 9.123-.918 2.211-3.426 3.844-4.556 4.489l-1.004.572-1.007-.572z"/>
    <path fill="#EE2024" d="M17.886 11.542H7.798c-.238 3.707-.422 6.68.407 8.676 1.021 2.46 4.516 4.22 4.631 4.276v.006l.005-.003.005.003v-.006c.115-.057 3.61-1.816 4.632-4.276.83-1.996.647-4.97.408-8.676z"/>
    <path fill="#FFF" d="M15.865 16.109s-1.401.133-2.632.165c-.009-.269-.014-.506-.014-.681 0-.188.007-.394.017-.605.973.06 1.645.246 1.645.246.247 0 .447-.2.447-.447v-.606c0-.247-.2-.447-.447-.447 0 0-.739.126-1.568.179.071-.782.156-1.435.156-1.435 0-.247-.2-.447-.447-.447h-.605c-.247 0-.447.2-.447.447 0 0 .092.666.17 1.443-.852-.047-1.583-.187-1.583-.187-.247 0-.447.2-.447.447v.606c0 .247.2.447.447.447 0 0 .639-.206 1.67-.255.014.23.024.453.024.646 0 .161-.006.388-.016.649-1.242-.033-2.693-.164-2.693-.164-.247 0-.447.2-.447.447v.606c0 .247.2.447.447.447 0 0 1.319-.108 2.635-.128-.083 1.531-.207 3.322-.207 3.322 0 .247.2.447.447.447h.605c.247 0 .447-.2.447-.447 0 0-.111-1.773-.185-3.317 1.272.03 2.581.123 2.581.123.247 0 .447-.2.447-.447v-.606c0-.247-.2-.448-.447-.448z"/>
    <path fill="#0A4EA2" d="M17.079 20.965c-.508-1.086-1.905-1.393-2.568-.066-.438-1.594-1.681-1.594-1.681-1.594s-1.244 0-1.681 1.594c-.658-1.316-2.04-1.024-2.558.041 1.314 2.074 4.143 3.504 4.247 3.555v.005l.005-.003.005.003v-.006c.103-.051 2.91-1.469 4.231-3.529z"/>
  </symbol>
  <symbol viewBox="0 0 36 36" id="i-flag-za">
    <path fill="#DE3830" d="M32 5H6.5L19 13.5h17V9c0-2.209-1.791-4-4-4z"/>
    <path fill="#002395" d="M6.5 31H32c2.209 0 4-1.791 4-4v-4.5H19L6.5 31z"/>
    <path fill="#141414" d="M0 11v14l10.5-7z"/>
    <path fill="#FFB611" d="M0 9v2l10.5 7L0 25v2l13.5-9z"/>
    <path fill="#007A4D" d="M3.541 5.028C1.548 5.257 0 6.947 0 9l13.5 9L0 27c0 2.053 1.548 3.743 3.541 3.972L18.5 20.5H36v-5H18.5L3.541 5.028z"/>
    <path fill="#EEE" d="M6.5 5H4c-.156 0-.308.011-.459.028L18.5 15.5H36v-2H19L6.5 5zM3.541 30.972c.151.017.303.028.459.028h2.5L19 22.5h17v-2H18.5L3.541 30.972z"/>
  </symbol>
  <symbol viewBox="0 0 36 36" id="i-flag-ar">
    <path fill="#75AADB" d="M36 27c0 2.209-1.791 4-4 4H4c-2.209 0-4-1.791-4-4V9c0-2.209 1.791-4 4-4h28c2.209 0 4 1.791 4 4v18z"/>
    <path fill="#EEE" d="M0 13h36v10H0z"/>
    <path fill="#FCBF49" d="M18 13l.488 2.548 1.426-2.167-.525 2.54 2.146-1.457-1.457 2.147 2.541-.524-2.167 1.425L23 18l-2.548.488 2.167 1.426-2.541-.525 1.457 2.146-2.146-1.457.525 2.541-1.426-2.167L18 23l-.488-2.548-1.425 2.167.524-2.541-2.147 1.457 1.457-2.146-2.54.525 2.167-1.426L13 18l2.548-.488-2.167-1.425 2.54.524-1.457-2.147 2.147 1.457-.524-2.54 1.425 2.167z"/>
    <path fill="#843511" d="M18 14.33l.242 1.265.116.605.339-.514.708-1.076-.261 1.261-.125.604.51-.346 1.066-.723-.723 1.066-.346.51.603-.125 1.262-.26-1.076.708-.515.337.605.116L21.67 18l-1.265.242-.605.116.514.339 1.076.708-1.262-.261-.604-.125.346.51.723 1.065-1.065-.723-.51-.346.125.604.261 1.262-.708-1.076-.338-.515-.116.605L18 21.67l-.242-1.265-.116-.605-.339.515-.708 1.076.26-1.262.125-.603-.51.346-1.066.723.723-1.066.346-.51-.604.125-1.261.261 1.076-.708.514-.339-.605-.116L14.33 18l1.265-.242.605-.116-.515-.339-1.076-.708 1.261.26.603.125-.346-.51-.724-1.066 1.066.724.51.346-.125-.603-.26-1.261.708 1.076.339.515.116-.605L18 14.33M18 13l-.488 2.548-1.425-2.167.524 2.541-2.147-1.457 1.457 2.147-2.54-.524 2.167 1.425L13 18l2.548.488-2.167 1.426 2.54-.525-1.457 2.146 2.147-1.457-.524 2.541 1.425-2.167L18 23l.488-2.548 1.426 2.167-.525-2.541 2.146 1.457-1.457-2.146 2.541.525-2.167-1.426L23 18l-2.548-.488 2.167-1.425-2.541.524 1.457-2.147-2.146 1.457.525-2.541-1.426 2.167L18 13zm1.914.381h.005-.005zm1.621 1.083h.005-.005zm1.084 1.623h.005-.005z"/>
    <circle fill="#FCBF49" cx="18" cy="18" r="2"/>
    <path fill="#843511" d="M18 20.125c-1.172 0-2.125-.953-2.125-2.125s.953-2.125 2.125-2.125 2.125.953 2.125 2.125-.953 2.125-2.125 2.125zm0-4c-1.034 0-1.875.841-1.875 1.875s.841 1.875 1.875 1.875 1.875-.841 1.875-1.875-.841-1.875-1.875-1.875z"/>
    <path fill="#C16540" d="M17.801 17.774c0 .155-.261.28-.583.28-.323 0-.584-.125-.584-.28 0-.155.261-.28.584-.28.322 0 .583.125.583.28zm1.553-.024c0-.161-.266-.292-.594-.292-.328 0-.594.13-.594.292s.266.292.594.292c.329 0 .594-.131.594-.292z"/>
    <path fill="#ED8662" d="M17.463 18.874c0-.126.246-.229.548-.229.303 0 .548.102.548.229 0 .126-.246.229-.548.229-.303 0-.548-.103-.548-.229z"/>
  </symbol>
  <symbol viewBox="0 0 36 36" id="i-flag-br">
    <path fill="#009B3A" d="M36 27c0 2.209-1.791 4-4 4H4c-2.209 0-4-1.791-4-4V9c0-2.209 1.791-4 4-4h28c2.209 0 4 1.791 4 4v18z"/>
    <path fill="#FEDF01" d="M32.728 18L18 29.124 3.272 18 18 6.875z"/>
    <circle fill="#002776" cx="17.976" cy="17.924" r="6.458"/>
    <path fill="#CBE9D4" d="M12.277 14.887c-.332.621-.558 1.303-.672 2.023 3.995-.29 9.417 1.891 11.744 4.595.402-.604.7-1.28.883-2.004-2.872-2.808-7.917-4.63-11.955-4.614z"/>
    <path fill="#88C9F9" d="M12 18.233h1v1h-1zm1 2h1v1h-1z"/>
    <path fill="#55ACEE" d="M15 18.233h1v1h-1zm2 1h1v1h-1zm4 2h1v1h-1zm-3 1h1v1h-1zm3-6h1v1h-1z"/>
    <path fill="#3B88C3" d="M19 20.233h1v1h-1z"/>
  </symbol>
  <symbol viewBox="0 0 36 36" id="i-flag-ca">
    <path fill="#D52B1E" d="M4 5C1.791 5 0 6.791 0 9v18c0 2.209 1.791 4 4 4h6V5H4zm28 0h-6v26h6c2.209 0 4-1.791 4-4V9c0-2.209-1.791-4-4-4z"/>
    <path fill="#EEE" d="M10 5h16v26H10z"/>
    <path fill="#D52B1E" d="M18.615 22.113c1.198.139 2.272.264 3.469.401l-.305-1.002c-.049-.176.021-.368.159-.476l3.479-2.834-.72-.339c-.317-.113-.23-.292-.115-.722l.531-1.936-2.021.427c-.197.03-.328-.095-.358-.215l-.261-.911-1.598 1.794c-.227.288-.687.288-.544-.376l.683-3.634-.917.475c-.257.144-.514.168-.657-.089l-1.265-2.366v.059-.059l-1.265 2.366c-.144.257-.401.233-.658.089l-.916-.475.683 3.634c.144.664-.317.664-.544.376l-1.598-1.793-.26.911c-.03.12-.162.245-.359.215l-2.021-.427.531 1.936c.113.43.201.609-.116.722l-.72.339 3.479 2.834c.138.107.208.3.158.476l-.305 1.002 3.47-.401c.106 0 .176.059.175.181l-.214 3.704h.956l-.213-3.704c.002-.123.071-.182.177-.182z"/>
  </symbol>
  <symbol viewBox="0 0 36 36" id="i-flag-cl">
    <path fill="#1F429B" d="M13 5H4C1.791 5 0 6.791 0 9v9h13V5zm-4.663 9.292l-1.882-1.367-1.882 1.367.719-2.212-1.882-1.368h2.326L6.455 8.5l.719 2.212H9.5L7.618 12.08l.719 2.212z"/>
    <path fill="#EEE" d="M32 5H13v13h23V9c0-2.209-1.791-4-4-4z"/>
    <path fill="#D42D27" d="M0 18v9c0 2.209 1.791 4 4 4h28c2.209 0 4-1.791 4-4v-9H0z"/>
    <path fill="#FFF" d="M7.174 10.712L6.455 8.5l-.719 2.212H3.41l1.882 1.368-.719 2.212 1.882-1.367 1.882 1.367-.719-2.212L9.5 10.712z"/>
  </symbol>
  <symbol viewBox="0 0 36 36" id="i-flag-co">
    <path fill="#FBD116" d="M32 5H4C1.791 5 0 6.791 0 9v9h36V9c0-2.209-1.791-4-4-4z"/>
    <path fill="#22408C" d="M0 18h36v7H0z"/>
    <path fill="#CE2028" d="M0 27c0 2.209 1.791 4 4 4h28c2.209 0 4-1.791 4-4v-2H0v2z"/>
  </symbol>
  <symbol viewBox="0 0 36 36" id="i-flag-mx">
    <path fill="#006847" d="M4 5C1.791 5 0 6.791 0 9v18c0 2.209 1.791 4 4 4h7V5H4z"/>
    <path fill="#CE1126" d="M32 5h-7v26h7c2.209 0 4-1.791 4-4V9c0-2.209-1.791-4-4-4z"/>
    <path fill="#EEE" d="M11 5h14v26H11z"/>
    <path fill="#A6D388" d="M23 18c0 2.762-2.238 5-5 5-2.761 0-5-2.238-5-5h-1c0 3.313 2.686 6 6 6s6-2.687 6-6h-1z"/>
    <path d="M13.543 20.269c-.092-.18-.278-.28-.468-.271-.069.002-.14.02-.205.053-.247.125-.344.427-.219.673.09.177.189.35.296.516v.001l.004.006v.001l.008.011v.001l.003.006.001.002.004.005v.001l.003.005v.002l.003.005.001.002.003.005.001.002.003.004.002.003.002.003.001.003.003.005.001.001.002.003.003.006.001.002.003.005.001.002.007.01v.001l.005.007v.001c.052.077.105.151.161.226.102.138.262.206.421.2.096-.004.193-.036.276-.099.222-.164.268-.478.103-.699-.158-.226-.305-.464-.43-.71zm-.497-1.582c-.021-.156-.036-.315-.043-.477-.005-.12-.005-.238-.003-.356.008-.275-.209-.506-.485-.514l-.036.001c-.26.011-.471.221-.478.485-.002.104-.003.207-.001.311v.09l.001.005v.028l.001.003-.001.002v.003l.001.002v.029l.001.003v.011l.001.019.001.009v.011c.009.16.025.319.046.477.036.257.261.44.515.43.016-.001.032-.002.047-.005.281-.04.471-.293.433-.567zm5.294 4.3l-.006.001-.124.008c-.237.009-.477.003-.71-.021-.024-.003-.047-.003-.071-.002-.245.01-.451.2-.476.45-.027.274.173.519.447.547l.125.011.004.001.002-.001.003.001h.002l.006.001h.006l.003.001h.001l.006-.001.003.001h.005l.006.001.005.001h.013l.006.001h.013c.152.01.305.015.459.012h.039l.007-.001.006.001h.015l.005-.001h.019l.006-.001h.001l.005.001.001-.001.006.001h.001l.005-.001h.008l.006-.001h.006l.001.001.006-.001h.007l.005-.001h.02l.005-.001h.004l.004-.001.004.001h.005l.004-.001h.005c.042-.001.085-.005.127-.007.269-.022.471-.255.453-.526-.007-.272-.242-.483-.514-.473zm-2.439-.448c-.251-.116-.495-.255-.724-.411-.092-.064-.199-.091-.303-.087-.152.006-.3.08-.393.217-.155.227-.098.539.13.694l.001.001.006.003.006.006.006.004.006.005c.266.181.548.34.842.476.074.035.153.049.23.046.182-.008.352-.113.433-.289.119-.251.01-.549-.24-.665zm5.03-.398c-.085.004-.171.03-.248.08-.233.148-.481.279-.734.387-.255.106-.375.399-.267.655.084.197.279.312.48.305.059-.002.116-.016.173-.038l.134-.06h.002l.006-.004.002-.001.004-.002h.004l.004-.002.002-.002.006-.001.002-.002.003-.002.005-.002.003-.001.005-.002.002-.001.005-.002.002-.001c.003-.002.003-.003.005-.003l.002-.001.006-.003h.002l.006-.003.006-.003.002-.001.005-.003.002-.001.006-.003.001-.001.007-.001.007-.004.002-.001.004-.003h.002l.006-.004.008-.002.006-.004h.001l.007-.004.001-.001.014-.006.007-.003.014-.008.008-.003.006-.003h.001l.014-.008v-.001l.006-.002h.001l.022-.012.007-.002.014-.008.007-.004h.001c.001-.001.003-.002.007-.002.002-.003.004-.004.006-.005l.008-.004.006-.003v-.001l.014-.006h.001l.007-.004.001-.001.005-.003h.001l.007-.004.006-.003h.002l.006-.004v-.001l.007-.003.001-.001.006-.003v-.001l.006-.002.002-.001.004-.003.003-.001.005-.003.002-.001.005-.003.002-.001.006-.002c-.001-.001 0-.001.001-.001l.006-.003.002-.001.004-.003.002-.001.006-.003.002-.001c0-.002.002-.002.004-.003l.003-.001.004-.002.003-.002.004-.002.003-.002.003-.002.003-.003.005-.001.004-.001.002-.002.004-.002.004-.003.002-.001.004-.002.004-.003.003-.002c.002.001.003 0 .005-.001l.002-.002.004-.002.003-.002.003-.002.004-.002.004-.003.002-.001c.002-.001.006-.001.008-.003-.002-.001-.002-.001 0-.001l.004-.002.007-.005.002-.001.007-.003v-.001l.012-.006.008-.005c.006-.004.012-.008.02-.011h.001c.063-.038.128-.077.19-.117.232-.15.301-.457.152-.69-.115-.149-.285-.232-.457-.225zm2.571-4.618l-.024.001c-.266.011-.478.229-.479.498 0 .277-.025.557-.072.829-.047.271.137.531.408.577.036.006.071.009.106.008.23-.01.432-.179.473-.417v-.005l.001-.002.001-.002-.001-.002.001-.002v-.002l.001-.002v-.003l.001-.002v-.009c.002-.001.002-.003.002-.004v-.006c.021-.129.039-.259.052-.391l-.001-.001.001-.003v-.001l.001-.004v-.011l.002-.003v-.001l-.001-.003v-.002l.001-.003v-.004l.002-.001-.002-.003v-.004c.002-.001.002-.002.002-.003v-.019l.002-.003v-.001c.013-.163.021-.328.021-.495 0-.273-.222-.498-.498-.499zm-.443 2.696c-.084-.046-.175-.066-.263-.062-.169.007-.329.1-.417.258-.134.242-.289.476-.463.692-.172.217-.135.531.08.702.1.079.217.113.333.108.14-.006.276-.07.37-.188.116-.146.227-.299.33-.455.002-.007.007-.014.011-.02l.001-.001.004-.006v-.001l.004-.007c.002-.002.004-.004.004-.006l.001.001.004-.006v-.001c.002-.002.003-.005.003-.007l.002-.001.004-.006v-.001c.002-.001.002-.003.003-.005l.001-.001.004-.006.001-.002.002-.005.003-.002.002-.005h.002l.002-.006.001-.002.004-.004.001-.002c.001-.002.001-.004.003-.005l.001-.003.004-.003c0-.001 0-.002.002-.003v-.004l.003-.002.003-.005.001-.002.003-.006.002-.002.002-.004.002-.003c0-.001 0-.002.002-.003 0-.001 0-.002.002-.003l.003-.005.001-.003.002-.003.002-.003c.002-.001.002-.002.002-.003.002-.001.002-.002.002-.004l.002-.003.003-.004.003-.004v-.003l.002-.003.003-.004.003-.003v-.003l.004-.005v-.003c.002-.001.003-.002.003-.004l.002-.002.002-.003.003-.005.002-.003v-.002l.004-.005c0-.001 0-.002.002-.003l.001-.003.003-.004.002-.004.002-.003c.001-.001 0-.003.002-.004 0-.001 0-.002.002-.002l.002-.005.002-.002.002-.006.002-.001.002-.004.002-.002.002-.005.002-.002.002-.006c.002-.001 0-.002 0-.002l.004-.005.001-.002.004-.005v-.001l.003-.006.002-.002.002-.006v-.001l.005-.005.003-.006v-.001l.004-.007.002-.001.025-.047c.129-.234.043-.538-.199-.672z" fill="#5C913B"/>
    <ellipse fill="#55ACEE" cx="18" cy="21" rx="3" ry="1"/>
    <ellipse fill="#FFCC4D" cx="18.5" cy="21" rx="1.5" ry="1"/>
    <path fill="#5C913B" d="M19.117 21.274c-.081 0-.163-.02-.239-.061-.243-.132-.333-.436-.201-.678.16-.294.328-.561.502-.795-.139.006-.283.009-.43.009-.276 0-.528-.225-.528-.501s.195-.5.472-.5l.082.001c.296 0 .6-.018.872-.043.158-.017.309.047.41.156.014-.011.028-.022.043-.031.1-.066.193-.119.28-.161.059-.046.131-.079.211-.094l.036-.007c.188-.061.32-.069.373-.069.159 0 .308.075.402.203.094.128.122.292.075.444-.082.266-.265.326-.586.39-.06.023-.142.063-.238.128-.188.123-.432.104-.599-.034.137.177.143.431-.002.614-.17.217-.337.475-.496.768-.09.167-.262.261-.439.261zm-1.42-1.589c-.021 0-.044-.001-.066-.004-.374-.05-.729-.124-1.056-.221-.265-.079-.416-.357-.337-.622l.006-.02-.012.023c-.135.241-.44.328-.681.192-.34-.19-.645-.419-.907-.681-.195-.195-.195-.512 0-.707.195-.195.512-.195.707 0 .197.197.428.37.688.515.214.12.306.374.229.597.105-.213.354-.326.59-.256.276.082.579.145.9.188.274.036.467.287.431.561-.029.252-.245.435-.492.435zm-2.452-2.339c-.426 0-.977-.165-1.311-.559-.512-.604-.813-1.379-.767-1.973.012-.159-.143-.287-.295-.327-.087-.023-.24-.037-.312.118-.059.126-.207.179-.332.122-.125-.058-.18-.207-.122-.332.156-.339.506-.49.892-.392.358.093.701.415.667.85-.036.462.226 1.109.65 1.61.223.264.611.371.875.381.215.011.324-.038.347-.059-.056-.133-.797-.523-1.113-.689-.269-.141-.349-.335-.369-.472-.067-.455.4-.916.852-1.36.159-.157.31-.305.392-.414.093-.123.078-.205.06-.256-.069-.187-.368-.372-.728-.452-.333-.074-.558-.235-.668-.479-.145-.321-.068-.741.234-1.285.067-.122.22-.164.34-.097.121.067.164.219.097.34-.285.512-.257.744-.215.837.042.092.149.157.32.195.423.094.932.345 1.088.767.089.241.044.501-.128.73-.104.139-.268.3-.441.471-.258.254-.739.727-.708.931.006.042.061.079.107.102.751.394 1.25.679 1.352 1.028.036.123.021.247-.042.359-.097.169-.299.273-.585.299-.043.004-.09.006-.137.006z"/>
    <ellipse fill="#FFCC4D" cx="19.5" cy="18" rx=".5" ry="1"/>
    <path fill="#FFCC4D" d="M17.292 17.188c0 .288-.345.521-.771.521-.425 0-.771-.233-.771-.521s.345-.521.771-.521c.425 0 .771.233.771.521zm-1.187-4.627c.05.212-.227.46-.619.553-.392.093-.75-.004-.801-.216-.05-.213.227-.461.618-.554.393-.092.752.004.802.217z"/>
    <path fill="#C1694F" d="M22.533 17.955c.09.07.243-.729.22-.978 0-.017-.029-.546.083-.924.069-.128.073-1.083-.033-1.334.084-.007.185-.034.197-.136-.388.143-.479-.817-.852-1.369-.362-.553-.811-.875-1.28-1.211.035-.094.091-.182.162-.27-.575.288-1.471-.755-2.795-.677-.297.029-.438.047-.514.229-.247.02-.498.076-.498.401 0 .078.071.22.229.221.216.063.392.014.539.316l.039.312s-.193-.247-.299-.286l.065-.133c-.1-.058-.277-.011-.277-.011s-.385-.18-.694-.132l-.06-.25c-.054.154-.175.146-.192.291-.034-.104-.079-.233-.111-.337-.109.148-.077.308-.116.462-.042.036-.128.037-.15-.062-.011-.122-.026-.133-.026-.278-.078.137-.172.204-.203.439l-.083-.26c.003.307-.261.49-.511.707-.071.13.011.131.017.198l.132.066.237-.017c.039.049.007.053.11.084.276.077.62-.254.89.267-.124.104-.249.347-.209.393.05 0-.1.07.102.006-.21.204-.352.473-.352.489-.024.058.084-.008.062.097l.05-.006c-.479.518-.016 1.075-.067 1.374.08.129.09-.003.19-.016.084.368.326.591.474.882l-.312.003c.007.138.132.269.231.39l-.209.066c-.149.076-.247.157-.352.274-.069.168.333.208.527.238l-.007.203c.303.029.653-.061.653-.078l.076-.059.171.094c.057 0 .146-.228.105-.403.11.131.214.342.324.474l.103-.014c.094.149.223.297.317.446l.105.04c.061-.021.113-.028.146-.148l.048.084.166-.114.116-.023.087.142c.051-.019.101-.13.104-.248.052.103.066.095.104.122l.077-.162.415.388.314.018c.112.076.419.124.471.001.252.108.549-.014.534-.134.232.092.589.03.589.015.043-.005.153-.113.049-.194-.767-.534-1.904-1.418-2.343-1.631 0-.158-.119-.727-.247-.883l.104-.174c.299.279.407.252.566.296.17.135.229.34.399.527l.152.028c-.105-.267-.236-.526-.554-.873.164.082.436.301.618.46.12.201.155.361.265.613.08.051.162.238.151.083-.019-.291-.224-.752-.224-.785.326.258.322.66.421.905.083.124.125.29.161.251l-.096-.756-.056-.277c.241.139.327.669.44 1.305 0 .101.041.212.035.277.052.064.111.241.11.136 0 0 0-1.034-.071-1.271-.018-.127.03-.333.03-.333.088.429.182.894.271 1.322v.315l.132.133c.025-.26.055-.518.081-.776l-.099-.925v-.264c-.002-.093.085-.076.14.03.013.227.013.404.022.63.039.258.066.447.085.776.011.266.023.904.079.893z"/>
  </symbol>
  <symbol viewBox="0 0 36 36" id="i-flag-us">
    <path fill="#B22334" d="M35.445 7C34.752 5.809 33.477 5 32 5H18v2h17.445zM0 25h36v2H0zm18-8h18v2H18zm0-4h18v2H18zM0 21h36v2H0zm4 10h28c1.477 0 2.752-.809 3.445-2H.555c.693 1.191 1.968 2 3.445 2zM18 9h18v2H18z"/>
    <path fill="#EEE" d="M.068 27.679c.017.093.036.186.059.277.026.101.058.198.092.296.089.259.197.509.333.743L.555 29h34.89l.002-.004c.135-.233.243-.483.332-.741.034-.099.067-.198.093-.301.023-.09.042-.182.059-.275.041-.22.069-.446.069-.679H0c0 .233.028.458.068.679zM0 23h36v2H0zm0-4v2h36v-2H18zm18-4h18v2H18zm0-4h18v2H18zM0 9c0-.233.03-.457.068-.679C.028 8.542 0 8.767 0 9zm.555-2l-.003.005L.555 7zM.128 8.044c.025-.102.06-.199.092-.297-.034.098-.066.196-.092.297zM18 9h18c0-.233-.028-.459-.069-.68-.017-.092-.035-.184-.059-.274-.027-.103-.059-.203-.094-.302-.089-.258-.197-.507-.332-.74.001-.001 0-.003-.001-.004H18v2z"/>
    <path fill="#3C3B6E" d="M18 5H4C1.791 5 0 6.791 0 9v10h18V5z"/>
    <path fill="#FFF" d="M2.001 7.726l.618.449-.236.725L3 8.452l.618.448-.236-.725L4 7.726h-.764L3 7l-.235.726zm2 2l.618.449-.236.725.617-.448.618.448-.236-.725L6 9.726h-.764L5 9l-.235.726zm4 0l.618.449-.236.725.617-.448.618.448-.236-.725.618-.449h-.764L9 9l-.235.726zm4 0l.618.449-.236.725.617-.448.618.448-.236-.725.618-.449h-.764L13 9l-.235.726zm-8 4l.618.449-.236.725.617-.448.618.448-.236-.725.618-.449h-.764L5 13l-.235.726zm4 0l.618.449-.236.725.617-.448.618.448-.236-.725.618-.449h-.764L9 13l-.235.726zm4 0l.618.449-.236.725.617-.448.618.448-.236-.725.618-.449h-.764L13 13l-.235.726zm-6-6l.618.449-.236.725L7 8.452l.618.448-.236-.725L8 7.726h-.764L7 7l-.235.726zm4 0l.618.449-.236.725.617-.448.618.448-.236-.725.618-.449h-.764L11 7l-.235.726zm4 0l.618.449-.236.725.617-.448.618.448-.236-.725.618-.449h-.764L15 7l-.235.726zm-12 4l.618.449-.236.725.617-.448.618.448-.236-.725.618-.449h-.764L3 11l-.235.726zM6.383 12.9L7 12.452l.618.448-.236-.725.618-.449h-.764L7 11l-.235.726h-.764l.618.449zm3.618-1.174l.618.449-.236.725.617-.448.618.448-.236-.725.618-.449h-.764L11 11l-.235.726zm4 0l.618.449-.236.725.617-.448.618.448-.236-.725.618-.449h-.764L15 11l-.235.726zm-12 4l.618.449-.236.725.617-.448.618.448-.236-.725.618-.449h-.764L3 15l-.235.726zM6.383 16.9L7 16.452l.618.448-.236-.725.618-.449h-.764L7 15l-.235.726h-.764l.618.449zm3.618-1.174l.618.449-.236.725.617-.448.618.448-.236-.725.618-.449h-.764L11 15l-.235.726zm4 0l.618.449-.236.725.617-.448.618.448-.236-.725.618-.449h-.764L15 15l-.235.726z"/>
  </symbol>
  <symbol viewBox="0 0 36 36" id="i-flag-hk">
    <path fill="#DE2910" d="M36 27c0 2.209-1.791 4-4 4H4c-2.209 0-4-1.791-4-4V9c0-2.209 1.791-4 4-4h28c2.209 0 4 1.791 4 4v18z"/>
    <g fill="#FFF">
      <path d="M19.626 9.201c-.604-.314-1.289-.481-2.035-.31-.906.208-2.011 1.148-2.312 2.24-.142.515-.261.97-.254 1.391.005.29.004.774.039 1.252.024.339.193 1.071.461 1.717l.017-.006c.147.491.633 1.253 1.109 1.878.546.717.973 1.04 1.059 1.039-.052-.032-.105-.066-.162-.137-.312-.391-.624-1.104-.688-1.587-.124-.943.036-1.625.297-2.444.065-.205.2-.264.289-.211.007.004.011.013.018.019.055.051.089.144.04.314-.125.438-.431 1.54-.268 2.322.15.721.364 1.151.617 1.455-.101-.202-.215-.592-.223-.994-.004-.224-.023-.446.089-.647.188-.337.462-.518.779-.689.219-.118.425-.279.614-.4.86-.548 1.149-1.632 1.125-2.07l-.021-.327c.018-.119-.036-.446-.179-.774-.107-.246-.276-.488-.412-.673-.069-.095-.108-.204-.146-.271-.147-.255-.147-.544-.145-.727.001-.216.029-.241.091-.344.049-.082.102-.193.268-.282.122-.064.397-.045.559.038.138.069.164.063.235.102.064.035.231.123.221.088-.039-.132-.523-.672-1.082-.962zm-3.738 9.867c-.941-.129-1.558-.463-2.28-.931-.179-.116-.202-.261-.13-.333l.006-.003c.059-.052.166-.066.332.034.391.236 1.373.821 2.17.871.649.04 1.087-.031 1.43-.161-.232.024-.564.016-.89-.068-.217-.057-.436-.099-.6-.26-.273-.271-.374-.584-.454-.936-.055-.243-.154-.484-.22-.699-.295-.976-1.261-1.547-1.69-1.642l-.32-.067c-.11-.05-.44-.084-.794-.037-.266.036-.544.135-.759.216-.111.042-.225.049-.3.068-.286.073-.564-.005-.739-.056-.208-.06-.225-.094-.307-.182-.066-.069-.159-.148-.2-.333-.029-.134.064-.394.187-.528.104-.112.105-.14.161-.199.051-.053.181-.189.144-.188-.136 0-.786.32-1.215.78-.466.498-.812 1.112-.848 1.876-.043.929.564 2.247 1.534 2.832.456.274.863.513 1.271.619.281.073.746.205 1.216.301.333.067 1.083.104 1.777.02v-.019c.513-.009 1.377-.272 2.106-.56.921-.366 1.371-.736 1.303-.77l-.012.01c-.009.01-.026.013-.044.016-.039.029-.065.06-.125.086-.457.196-1.228.31-1.71.243zm2.516 1.171c-.061-.864-.228-1.358-.306-1.439.006.026.018.038.022.068.061.496-.047 1.267-.247 1.712-.389.867-.883 1.364-1.535 1.927-.108.092-.214.119-.288.099-.049-.013-.084-.046-.094-.094-.015-.072.024-.176.15-.291.336-.309 1.175-1.085 1.447-1.838.21-.583.269-1.009.25-1.365-.041.229-.151.568-.343.872-.119.189-.225.385-.429.492-.341.179-.67.18-1.029.148-.247-.02-.508.002-.733-.002-1.02-.014-1.856.734-2.076 1.114l-.161.285c-.081.089-.213.393-.274.745-.047.265-.037.56-.025.789.006.118-.022.229-.026.307-.018.294-.176.536-.278.688-.12.179-.157.185-.265.237-.085.041-.19.106-.379.09-.136-.013-.356-.18-.446-.338-.076-.133-.102-.142-.141-.214-.035-.064-.125-.23-.136-.194-.041.13.067.847.375 1.394.334.596.815 1.11 1.533 1.376.871.322 2.311.143 3.162-.606.401-.352.751-.669.976-1.024.155-.245.421-.648.655-1.067.165-.296.425-1.002.556-1.688l-.017-.005c.145-.491.157-1.394.102-2.178z"/>
      <path d="M24.492 23.068c-.181-.503-.346-.943-.596-1.283-.171-.234-.449-.629-.754-1.001-.215-.262-.775-.762-1.367-1.136l-.009.014c-.405-.315-1.241-.657-1.99-.893-.783-.246-1.311-.285-1.453-.252.061-.005.128-.006.218.021.48.141 1.144.549 1.473.908.641.703.898 1.354 1.155 2.176.065.207-.014.334-.12.337-.003 0-.003.005-.006.005-.005 0-.006-.006-.009-.008-.075-.007-.159-.064-.218-.236-.149-.431-.528-1.509-1.109-2.059-.535-.505-.957-.735-1.339-.841-.071-.019-.108-.05-.146-.079-.005.004-.01.003-.015.009l.143.085c.199.107.518.359.756.683.131.182.275.352.3.581.041.382-.078.688-.237 1.013-.11.223-.186.473-.271.681-.387.943.002 1.995.275 2.339l.206.255c.054.108.288.343.593.528.229.141.508.239.727.314.111.037.204.103.275.136.267.123.434.36.538.511.123.177.115.214.124.334.007.094.028.215-.056.384-.062.122-.298.266-.477.293-.152.021-.17.042-.251.052-.072.009-.261.032-.23.056.105.086.812.248 1.434.162.677-.092 1.332-.352 1.842-.921.618-.697.977-2.103.594-3.168z"/>
      <path d="M27.01 15.069c-.496-.786-1.747-1.519-2.878-1.444-.53.036-1.001.074-1.395.219-.273.1-.73.258-1.17.449-.312.135-.946.537-1.468 1.002l.011.013c-.416.302-.976 1.012-1.408 1.667-.455.689-.63 1.171-.635 1.313.014-.057.027-.115.073-.189.266-.424.838-.952 1.274-1.171.85-.425 1.546-.498 2.406-.522.217-.006.317.103.293.205-.004.016-.014.031-.025.046-.041.057-.116.107-.271.115-.454.026-1.595.099-2.281.509-.632.379-.968.723-1.173 1.061-.038.064-.078.093-.117.121.002.005 0 .009.004.015l.122-.115c.157-.161.488-.398.864-.538.21-.078.414-.169.642-.13.379.065.641.265.907.508.185.167.404.309.579.447.802.631 1.921.547 2.327.38l.302-.129c.117-.021.407-.182.671-.424.197-.182.369-.421.499-.611.067-.098.156-.168.208-.227.192-.223.465-.318.638-.377.204-.069.237-.051.355-.026.093.019.215.031.354.159.101.093.174.36.148.54-.021.152-.004.175-.018.255-.012.072-.039.259-.009.237.111-.078.462-.713.551-1.335.096-.675.028-1.376-.38-2.023z"/>
    </g>
    <path d="M17.79 12.618l-.366.552-.627-.147-.017-.004.411.519-.334.55-.009.016.621-.231.433.502-.029-.663.594-.25.017-.007-.639-.177zm-4.579 4.06l-.002-.018-.342.567-.652-.125.433.502-.31.564-.009.016.611-.257.44.469.013.014-.056-.66.583-.274.017-.008-.645-.151zm10.348-.192l-.643-.163-.07-.659-.353.56-.631-.133-.017-.004.423.51-.323.558-.008.016.615-.246.431.479.013.013-.042-.661.588-.262zm-7.84 5.584l-.002-.017-.34.568-.632-.117-.018-.004.435.499-.306.567-.009.016.609-.261.443.467.013.014-.06-.659.582-.279.016-.008-.646-.146zm5.777-.507l-.001-.018-.373.549-.625-.156-.018-.004.405.524-.341.547-.009.015.623-.224.413.493.012.015-.018-.662.596-.243.018-.006-.636-.186z" fill="#DE2910"/>
  </symbol>
  <symbol viewBox="0 0 36 36" id="i-flag-il">
    <path fill="#EDECEC" d="M20.666 19l-.467.809h.934zM18 21.618l.467-.809h-.934z"/>
    <path fill="#EEE" d="M0 25h36V11H0v14zM.294 7.5h35.413C35.113 6.035 33.678 5 32 5H4C2.322 5 .887 6.035.294 7.5z"/>
    <path fill="#EDECEC" d="M21.133 16.191h-.934l.467.809zm-5.332 0h-.934l.467.809zm3.243 3.618L20.089 18l-1.045-1.809h-2.088L15.911 18l1.045 1.809zM15.334 19l-.467.809h.934zM18 14.382l-.467.809h.934z"/>
    <path fill="#0038B8" d="M.294 7.5C.106 7.964 0 8.469 0 9v2h36V9c0-.531-.106-1.036-.294-1.5H.294z"/>
    <path fill="#EEE" d="M.294 28.5h35.413C35.113 29.965 33.678 31 32 31H4C2.322 31 .887 29.965.294 28.5z"/>
    <path fill="#0038B8" d="M.294 28.5C.106 28.036 0 27.531 0 27v-2h36v2c0 .531-.106 1.036-.294 1.5H.294zm16.084-7.691L18 23.618l1.622-2.809h3.243L21.244 18l1.622-2.809h-3.243L18 12.382l-1.622 2.809h-3.243L14.756 18l-1.622 2.809h3.244zm1.622.809l-.467-.809h.934l-.467.809zm3.133-5.427l-.467.809-.467-.808h.934zM20.666 19l.467.808h-.934l.467-.808zM18 14.382l.467.809h-.934l.467-.809zm-1.044 1.809h2.089L20.089 18l-1.044 1.809h-2.089L15.911 18l1.045-1.809zm-1.155 0l-.467.809-.467-.808h.934zM15.334 19l.467.808h-.934l.467-.808z"/>
  </symbol>
  <symbol viewBox="0 0 36 36" id="i-flag-jp">
    <path fill="#EEE" d="M36 27c0 2.209-1.791 4-4 4H4c-2.209 0-4-1.791-4-4V9c0-2.209 1.791-4 4-4h28c2.209 0 4 1.791 4 4v18z"/>
    <circle fill="#ED1B2F" cx="18" cy="18" r="7"/>
  </symbol>
  <symbol viewBox="0 0 36 36" id="i-flag-kr">
    <path fill="#EEE" d="M36 27c0 2.209-1.791 4-4 4H4c-2.209 0-4-1.791-4-4V9c0-2.209 1.791-4 4-4h28c2.209 0 4 1.791 4 4v18z"/>
    <path fill="#C60C30" d="M21.441 13.085c-2.714-1.9-6.455-1.24-8.356 1.474-.95 1.356-.621 3.227.737 4.179 1.357.949 3.228.618 4.178-.738s2.822-1.687 4.178-.736c1.358.95 1.688 2.821.737 4.178 1.901-2.714 1.241-6.455-1.474-8.357z"/>
    <path fill="#003478" d="M22.178 17.264c-1.356-.951-3.228-.62-4.178.736s-2.821 1.687-4.178.737c-1.358-.951-1.687-2.822-.737-4.179-1.901 2.716-1.241 6.456 1.473 8.356 2.715 1.901 6.455 1.242 8.356-1.474.951-1.355.621-3.226-.736-4.176z"/>
    <path d="M24.334 25.572l1.928-2.298.766.643-1.928 2.298zm2.57-3.063l1.928-2.297.766.643-1.928 2.297zm-1.038 4.351l1.928-2.297.766.643-1.928 2.297zm2.572-3.066l1.93-2.297.766.644-1.93 2.296zm-1.041 4.352l1.93-2.297.765.643-1.929 2.297zm2.571-3.065l1.927-2.3.767.643-1.927 2.3zm.004-14.162l.766-.643 1.93 2.299-.767.643zM27.4 7.853l.766-.643 1.928 2.299-.767.642zm-1.533 1.288l.766-.643 4.5 5.362-.766.643zm-1.532 1.284l.767-.643 1.927 2.298-.766.642zm2.57 3.065l.766-.643 1.93 2.297-.765.643zM6.4 20.854l.766-.643 4.499 5.363-.767.643zM4.87 22.14l.765-.642 1.929 2.298-.767.643zm2.567 3.066l.766-.643 1.93 2.297-.766.643zm-4.101-1.781l.766-.643 4.5 5.362-.767.643zm-.001-10.852l4.498-5.362.767.642-4.5 5.363zm1.532 1.287l4.5-5.363.766.643-4.5 5.362zM6.4 15.145l4.5-5.363.766.643-4.5 5.363z" fill="#292F33"/>
  </symbol>
  <symbol viewBox="0 0 36 36" id="i-flag-pe">
    <path fill="#D91023" d="M4 5C1.791 5 0 6.791 0 9v18c0 2.209 1.791 4 4 4h8V5H4z"/>
    <path fill="#EEE" d="M12 5h12v26H12z"/>
    <path fill="#D91023" d="M32 5h-8v26h8c2.209 0 4-1.791 4-4V9c0-2.209-1.791-4-4-4z"/>
  </symbol>
  <symbol viewBox="0 0 36 36" id="i-flag-eu">
    <path fill="#039" d="M32 5H4C1.791 5 0 6.791 0 9v18c0 2.209 1.791 4 4 4h28c2.209 0 4-1.791 4-4V9c0-2.209-1.791-4-4-4z"/>
    <path d="M18.539 9.705l.849-.617h-1.049l-.325-.998-.324.998h-1.049l.849.617-.325.998.849-.617.849.617zm0 17.333l.849-.617h-1.049l-.325-.998-.324.998h-1.049l.849.617-.325.998.849-.617.849.617zm-8.666-8.667l.849-.617h-1.05l-.324-.998-.325.998H7.974l.849.617-.324.998.849-.617.849.617zm1.107-4.285l.849-.617h-1.05l-.324-.998-.324.998h-1.05l.849.617-.324.998.849-.617.849.617zm0 8.619l.849-.617h-1.05l-.324-.998-.324.998h-1.05l.849.617-.324.998.849-.617.849.617zm3.226-11.839l.849-.617h-1.05l-.324-.998-.324.998h-1.05l.849.617-.324.998.849-.617.849.617zm0 15.067l.849-.617h-1.05l-.324-.998-.324.998h-1.05l.849.617-.324.998.849-.616.849.616zm11.921-7.562l-.849-.617h1.05l.324-.998.325.998h1.049l-.849.617.324.998-.849-.617-.849.617zm-1.107-4.285l-.849-.617h1.05l.324-.998.324.998h1.05l-.849.617.324.998-.849-.617-.849.617zm0 8.619l-.849-.617h1.05l.324-.998.324.998h1.05l-.849.617.324.998-.849-.617-.849.617zm-3.226-11.839l-.849-.617h1.05l.324-.998.324.998h1.05l-.849.617.324.998-.849-.617-.849.617zm0 15.067l-.849-.617h1.05l.324-.998.324.998h1.05l-.849.617.324.998-.849-.616-.849.616z" fill="#FC0"/>
  </symbol>
</svg>
